HIERARCHY
ROOT Hips
{
	OFFSET 0.000000 0.000000 0.000000
	CHANNELS 6 Xposition Yposition Zposition Xrotation Yrotation Zrotation
	JOINT LeftUpLeg_virtual
	{
		OFFSET 0.000000 0.000000 0.000000
		CHANNELS 3 Xrotation Yrotation Zrotation
		JOINT LeftUpLeg
		{
			OFFSET 13.026900 -6.336304 -1.092800
			CHANNELS 3 Xrotation Yrotation Zrotation
			JOINT LeftLeg
			{
				OFFSET 0.524474 -46.096886 9.782700
				CHANNELS 3 Xrotation Yrotation Zrotation
				JOINT LeftFoot
				{
					OFFSET -0.524474 -53.427422 -12.948200
					CHANNELS 3 Xrotation Yrotation Zrotation
					JOINT LeftToeBase
					{
						OFFSET 0.192200 -14.009700 16.364100
						CHANNELS 3 Xrotation Yrotation Zrotation
						JOINT LeftToe_End
						{
							OFFSET -1.784700 -0.561700 9.474800
							CHANNELS 3 Xrotation Yrotation Zrotation
							End Site
							{
								OFFSET 0 0 0
							}
						}
					}
				}
			}
		}
	}
	JOINT RightUpLeg_virtual
	{
		OFFSET 0.000000 0.000000 0.000000
		CHANNELS 3 Xrotation Yrotation Zrotation
		JOINT RightUpLeg
		{
			OFFSET -12.883000 -6.336304 -1.092800
			CHANNELS 3 Xrotation Yrotation Zrotation
			JOINT RightLeg
			{
				OFFSET -0.524587 -46.096825 9.782800
				CHANNELS 3 Xrotation Yrotation Zrotation
				JOINT RightFoot
				{
					OFFSET 0.524587 -53.427383 -12.948300
					CHANNELS 3 Xrotation Yrotation Zrotation
					JOINT RightToeBase
					{
						OFFSET -0.192200 -14.009700 16.364100
						CHANNELS 3 Xrotation Yrotation Zrotation
						JOINT RightToe_End
						{
							OFFSET 1.784700 -0.561700 9.474800
							CHANNELS 3 Xrotation Yrotation Zrotation
							End Site
							{
								OFFSET 0 0 0
							}
						}
					}
				}
			}
		}
	}
	JOINT Spine_virtual
	{
		OFFSET 0.000000 0.000000 0.000000
		CHANNELS 3 Xrotation Yrotation Zrotation
		JOINT Spine
		{
			OFFSET 0.072000 7.257294 -0.789700
			CHANNELS 3 Xrotation Yrotation Zrotation
			JOINT Spine1
			{
				OFFSET 0.000000 12.508769 -0.658067
				CHANNELS 3 Xrotation Yrotation Zrotation
				JOINT Spine1_split
				{
					OFFSET 0.000000 12.508769 -0.658067
					CHANNELS 3 Xrotation Yrotation Zrotation
					JOINT Spine2
					{
						OFFSET 0.000000 12.508769 -0.658067
						CHANNELS 3 Xrotation Yrotation Zrotation
						JOINT Neck_virtual
						{
							OFFSET 0.000000 0.000000 0.000000
							CHANNELS 3 Xrotation Yrotation Zrotation
							JOINT Neck
							{
								OFFSET 0.000000 14.033295 7.520400
								CHANNELS 3 Xrotation Yrotation Zrotation
								JOINT Head
								{
									OFFSET 0.000000 8.198502 5.703100
									CHANNELS 3 Xrotation Yrotation Zrotation
									JOINT HeadTop_End
									{
										OFFSET 0.000000 17.760803 13.332701
										CHANNELS 3 Xrotation Yrotation Zrotation
										End Site
										{
											OFFSET 0 0 0
										}
									}
								}
							}
						}
						JOINT LeftShoulder_virtual
						{
							OFFSET 0.000000 0.000000 0.000000
							CHANNELS 3 Xrotation Yrotation Zrotation
							JOINT LeftShoulder
							{
								OFFSET 6.292450 5.785301 -0.669000
								CHANNELS 3 Xrotation Yrotation Zrotation
								JOINT LeftShoulder_split
								{
									OFFSET 6.292450 5.785301 -0.669000
									CHANNELS 3 Xrotation Yrotation Zrotation
									JOINT LeftArm
									{
										OFFSET 13.907140 -6.093903 1.965100
										CHANNELS 3 Xrotation Yrotation Zrotation
										JOINT LeftForeArm
										{
											OFFSET 34.140198 0.000000 0.000000
											CHANNELS 3 Xrotation Yrotation Zrotation
											JOINT LeftHand
											{
												OFFSET 40.960209 0.000000 0.000000
												CHANNELS 3 Xrotation Yrotation Zrotation
												End Site
												{
													OFFSET 0 0 0
												}
											}
										}
									}
								}
							}
						}
						JOINT RightShoulder_virtual
						{
							OFFSET 0.000000 0.000000 0.000000
							CHANNELS 3 Xrotation Yrotation Zrotation
							JOINT RightShoulder
							{
								OFFSET -6.292450 5.785301 -0.669000
								CHANNELS 3 Xrotation Yrotation Zrotation
								JOINT RightShoulder_split
								{
									OFFSET -6.292450 5.785301 -0.669000
									CHANNELS 3 Xrotation Yrotation Zrotation
									JOINT RightArm
									{
										OFFSET -13.907140 -6.093903 1.965100
										CHANNELS 3 Xrotation Yrotation Zrotation
										JOINT RightForeArm
										{
											OFFSET -34.140198 0.000000 0.000000
											CHANNELS 3 Xrotation Yrotation Zrotation
											JOINT RightHand
											{
												OFFSET -40.960209 0.000000 0.000000
												CHANNELS 3 Xrotation Yrotation Zrotation
												End Site
												{
													OFFSET 0 0 0
												}
											}
										}
									}
								}
							}
						}
					}
				}
			}
		}
	}
}
MOTION
Frames: 10
Frame Time: 0.03333333
-12.366633 100.524269 -0.435223 0.000000 0.000000 0.000000 25.131322 -65.172197 18.720077 -61.401393 -14.570042 16.533574 39.263896 -4.277578 6.119738 3.538227 0.450637 -13.342566 0.071436 2.211680 -1.232268 0.000000 0.000000 0.000000 21.871195 -68.792067 18.175992 -49.129045 -0.063587 -17.053044 54.873029 -6.014279 1.785589 10.194857 -0.871831 16.856837 -2.885380 0.178727 3.246040 0.000000 0.000000 0.000000 28.137434 -67.782401 20.758261 8.127141 8.345359 -3.389568 -0.227253 11.418662 3.176228 0.278899 0.972265 0.277513 0.000000 0.000000 0.000000 11.319328 12.652656 0.480374 -0.314596 10.839625 -6.052220 -12.499779 10.011655 8.085407 0.000000 0.000000 0.000000 5.297699 13.857901 1.093233 5.652183 5.248993 -7.837100 10.072537 8.987055 -2.659760 -62.448864 -30.808255 -46.279193 6.760203 -77.842047 3.854695 0.000000 0.000000 0.000000 6.387200 13.033577 1.737005 -13.621365 5.204850 -1.378321 -4.929435 -2.516858 -9.799531 -79.034947 38.010092 106.578101 -7.549679 47.408698 5.995551 0.000000 0.000000 0.000000 
-11.778303 102.015366 -7.912624 0.000000 0.000000 0.000000 23.306019 -62.956299 15.708014 -62.732398 -13.277167 14.474020 40.115337 -2.786396 5.390407 4.358372 0.116769 -13.473432 -0.657755 1.845025 -0.773105 0.000000 0.000000 0.000000 21.235854 -68.480276 16.510297 -47.386439 -1.767078 -15.142808 52.526146 -4.522378 0.859849 10.081412 1.493074 20.491100 -3.633405 0.529731 1.873193 0.000000 0.000000 0.000000 30.230110 -68.764152 22.146395 7.258619 8.489988 -2.433301 -0.674550 11.521574 3.318453 0.079214 0.313375 0.291631 0.000000 0.000000 0.000000 11.421037 12.936238 0.453364 0.903805 10.987724 -6.806849 -12.062615 10.870372 7.672604 0.000000 0.000000 0.000000 5.410542 13.934242 1.128364 5.494301 5.211721 -7.891186 9.884988 9.325547 -2.212724 -62.161804 -30.736726 -45.476451 5.885192 -76.749347 2.618699 0.000000 0.000000 0.000000 6.412547 13.263642 1.904306 -13.308407 5.678291 -1.445905 -5.435916 -2.438733 -10.540747 -78.334401 37.104296 105.375230 -7.248581 46.461897 5.732775 0.000000 0.000000 0.000000 
-10.891412 103.342041 -17.084255 0.000000 0.000000 0.000000 22.265216 -63.509797 13.775599 -62.991126 -9.006638 11.934317 40.709112 -0.956806 4.257399 5.960790 -1.160082 -13.431074 -1.372486 1.209452 0.206072 0.000000 0.000000 0.000000 23.052857 -69.460203 16.498392 -43.725478 -4.889350 -10.981458 48.399865 -4.207686 -0.048159 7.435046 2.295435 21.673872 -4.005243 0.671492 0.379844 0.000000 0.000000 0.000000 33.130857 -70.864674 24.230724 6.118851 8.876363 -0.972343 -0.917491 11.836971 3.613448 0.291515 0.087356 0.568909 0.000000 0.000000 0.000000 11.628538 13.422229 0.728394 1.948161 10.959994 -8.083460 -10.736515 11.620661 6.058571 0.000000 0.000000 0.000000 5.653082 14.195236 1.448044 5.353987 5.019394 -8.398656 10.192170 9.311004 -1.834747 -61.575562 -31.413884 -45.282310 6.959439 -76.975474 3.183634 0.000000 0.000000 0.000000 6.563252 13.637978 2.365773 -12.915981 6.503636 -1.203482 -6.069606 -2.413643 -10.658849 -77.551190 37.680952 103.561828 -6.820454 45.896996 5.321095 0.000000 0.000000 0.000000 
-10.130696 103.764244 -27.229267 0.000000 0.000000 0.000000 23.545284 -67.526023 14.458845 -62.271087 -3.524638 9.411493 41.643216 0.781018 3.009733 7.710604 -2.782265 -12.993919 -1.562763 0.512757 1.308489 0.000000 0.000000 0.000000 27.317152 -72.356688 18.989594 -39.768339 -8.523265 -6.354990 45.381532 -5.308111 -0.525499 3.054834 0.920793 19.733484 -4.023839 0.518402 -0.848538 0.000000 0.000000 0.000000 38.038700 -73.845956 28.239818 5.028153 9.375430 0.583718 -0.986461 12.329458 4.020387 0.496937 0.028207 0.883554 0.000000 0.000000 0.000000 11.746609 14.040500 1.252156 2.763037 10.719351 -9.467156 -9.058678 12.192211 3.653166 0.000000 0.000000 0.000000 5.909715 14.614136 1.956661 5.294911 4.782711 -9.207113 11.016994 8.836555 -1.511897 -60.526022 -32.666425 -45.480809 9.410984 -78.002454 5.071615 0.000000 0.000000 0.000000 6.818174 14.128140 2.999320 -12.511138 7.565970 -0.772643 -6.782853 -2.218299 -10.529426 -76.532522 39.210279 101.550884 -6.358246 45.762807 4.826732 0.000000 0.000000 0.000000 
-9.602757 102.755074 -37.639721 0.000000 0.000000 0.000000 29.302570 -73.866706 19.907894 -61.620054 1.482385 7.351153 43.645445 1.904754 1.840286 9.330644 -4.213710 -12.260587 -0.786643 0.017008 1.903756 0.000000 0.000000 0.000000 35.818578 -76.881340 26.424919 -36.477138 -11.744764 -3.368769 45.794506 -7.327346 -0.398140 -2.031102 -2.033242 15.235253 -4.803919 0.101409 -1.578736 0.000000 0.000000 0.000000 44.767741 -76.821364 34.322968 4.126632 9.959724 1.853261 -0.978797 12.955383 4.492235 0.567571 0.195693 1.090073 0.000000 0.000000 0.000000 11.675932 14.712023 1.879392 3.346002 10.160334 -10.526694 -7.666653 12.515519 1.124299 0.000000 0.000000 0.000000 6.101664 15.163008 2.506616 5.409355 4.736811 -10.306639 11.623005 7.511669 -0.699036 -59.024712 -34.167967 -45.784612 12.399987 -79.118289 7.569279 0.000000 0.000000 0.000000 7.058853 14.708403 3.633078 -12.262916 8.664439 -0.294476 -6.781006 -1.683013 -10.136811 -75.377018 40.671007 99.802847 -5.982749 46.306524 4.338102 0.000000 0.000000 0.000000 
-9.448647 100.209816 -48.566135 0.000000 0.000000 0.000000 46.056744 -80.314364 36.746264 -62.035016 4.571775 6.444272 46.825362 2.077514 0.848863 9.684815 -4.781026 -11.293396 0.929744 -0.137761 1.741127 0.000000 0.000000 0.000000 56.002005 -82.034615 46.614135 -34.687724 -13.764860 -3.541222 50.163204 -9.068557 0.207389 -6.367487 -5.153170 9.623415 -6.446077 -0.392053 -1.831440 0.000000 0.000000 0.000000 54.706083 -79.285150 43.799438 3.448844 10.591872 2.681594 -0.996256 13.636120 4.900148 0.596686 0.676058 1.046375 0.000000 0.000000 0.000000 11.474618 15.399169 2.366527 3.884370 9.270927 -11.034785 -6.936843 12.731332 -0.901758 0.000000 0.000000 0.000000 6.178482 15.852903 2.924128 5.728526 5.022560 -11.598115 11.392283 5.589668 0.697327 -57.283260 -35.561728 -45.911565 14.513153 -79.800092 9.364063 0.000000 0.000000 0.000000 7.247551 15.371855 4.078720 -12.240741 9.551531 0.014016 -5.621834 -0.944242 -9.579675 -74.622849 41.356290 98.863525 -5.759595 47.320206 3.911220 0.000000 0.000000 0.000000 
-9.734354 96.478706 -59.723858 0.000000 0.000000 0.000000 92.457020 -83.433083 83.327256 -63.432206 5.311189 6.816384 50.707594 1.645929 -0.117050 7.927581 -4.001678 -9.867826 2.727131 -0.008497 0.806479 0.000000 0.000000 0.000000 115.008146 -84.092497 106.508064 -34.870168 -13.840237 -7.512486 55.893593 -9.574703 0.771976 -8.780940 -7.494746 5.232332 -7.277363 -0.852689 -1.602761 0.000000 0.000000 0.000000 70.661722 -81.272667 59.641212 2.936153 11.140658 3.042564 -1.037917 14.326091 5.095085 0.502034 1.402416 0.694914 0.000000 0.000000 0.000000 11.204714 16.102390 2.521539 4.401345 8.160611 -10.857894 -6.826647 12.777407 -2.038642 0.000000 0.000000 0.000000 6.243033 16.656332 3.020633 6.238826 5.658360 -12.895362 10.986491 3.281212 2.379140 -55.850566 -36.548008 -45.981728 14.572565 -80.012907 9.379252 0.000000 0.000000 0.000000 7.453974 16.142684 4.144031 -12.440303 10.015600 0.102505 -3.842596 -0.580240 -9.007155 -74.700037 40.833815 98.783626 -5.771589 48.572620 3.596775 0.000000 0.000000 0.000000 
-10.531156 92.352783 -70.934525 0.000000 0.000000 0.000000 133.721976 -81.233817 124.898793 -65.182025 3.411596 8.668751 54.799977 0.555150 -0.929992 5.186141 -2.045668 -8.280746 3.235423 0.351852 -0.595198 0.000000 0.000000 0.000000 151.418969 -80.084719 143.835492 -36.601939 -11.474108 -14.567800 59.160981 -8.304686 0.346237 -8.256918 -8.207570 3.899413 -6.340691 -1.146646 -1.029116 0.000000 0.000000 0.000000 91.705617 -82.193048 81.081128 2.446448 11.630041 3.031247 -1.022396 14.979827 4.977824 0.250650 2.235766 0.339604 0.000000 0.000000 0.000000 10.988995 16.776659 2.265475 4.919060 7.035151 -10.007400 -7.080392 12.470135 -2.121538 0.000000 0.000000 0.000000 6.344221 17.471947 2.716797 6.852723 6.601295 -14.043034 10.607922 0.399417 4.133671 -54.845152 -37.073792 -46.132221 12.837453 -80.120243 7.881829 0.000000 0.000000 0.000000 7.694775 16.969434 3.778082 -12.840381 9.955518 0.047327 -1.303782 -0.593510 -7.961420 -75.861361 39.368749 99.378979 -6.015269 49.742389 3.433535 0.000000 0.000000 0.000000 
-11.828764 88.785553 -82.629013 0.000000 0.000000 0.000000 150.347599 -77.955360 141.935798 -66.332830 -0.672913 11.884027 57.792976 -1.000042 -1.447082 3.040800 0.511526 -7.003928 1.965503 0.886341 -1.807067 0.000000 0.000000 0.000000 159.626439 -75.754823 152.486118 -38.729949 -6.961514 -22.428062 57.525943 -5.463920 -1.111533 -4.876385 -6.923188 6.059870 -4.694808 -1.162371 -0.429756 0.000000 0.000000 0.000000 113.809591 -81.881674 103.986454 2.045470 11.935625 2.762888 -0.910084 15.470729 4.518609 -0.025823 2.776330 0.261775 0.000000 0.000000 0.000000 10.857309 17.319968 1.677106 5.456133 6.109079 -8.690658 -7.381361 12.010537 -1.302046 0.000000 0.000000 0.000000 6.440425 18.154363 2.046504 7.420037 7.675267 -14.792351 10.562947 -2.622215 5.459625 -54.263643 -37.138863 -46.306036 10.518501 -80.402118 5.950962 0.000000 0.000000 0.000000 7.972181 17.691718 3.068201 -13.261623 9.377081 -0.110884 1.664603 -1.000720 -6.336276 -78.079239 37.700411 100.469036 -6.399632 50.183155 3.441450 0.000000 0.000000 0.000000 
-13.416272 86.404373 -94.053452 0.000000 0.000000 0.000000 158.067216 -75.088354 150.106521 -66.088241 -5.327943 16.330996 58.444522 -2.672925 -1.681081 3.335476 3.039934 -6.289236 -0.499784 1.432279 -2.343294 0.000000 0.000000 0.000000 159.872421 -73.034509 152.730775 -40.313908 -1.741102 -28.694420 51.347433 -1.564979 -2.701792 -0.164242 -3.922381 10.446368 -3.624719 -0.983303 -0.014608 0.000000 0.000000 0.000000 131.047452 -80.683249 122.379764 1.812054 11.931171 2.339003 -0.742646 15.700757 3.835644 -0.123414 2.900247 0.348776 0.000000 0.000000 0.000000 10.727196 17.597286 0.938076 6.069427 5.602071 -7.202469 -7.411192 11.739056 0.048180 0.000000 0.000000 0.000000 6.518433 18.528741 1.184558 7.831150 8.788497 -15.050598 10.948488 -5.440774 6.157277 -54.010844 -36.739369 -46.461887 8.681002 -81.050754 4.510493 0.000000 0.000000 0.000000 8.200443 18.128150 2.219653 -13.585619 8.355936 -0.361488 4.429117 -1.415683 -4.762830 -80.965780 36.272553 101.891997 -6.886802 49.564012 3.650709 0.000000 0.000000 0.000000 
